<?xml version="1.0" encoding="UTF-8"?>
<svg id="FOOTBALLSCHLAND_Kopie" data-name="FOOTBALLSCHLAND Kopie" xmlns="http://www.w3.org/2000/svg" viewBox="0 0 716.2 766.96">
  <defs>
    <style>
      .cls-1, .cls-2 {
        stroke: #000;
        stroke-width: 35px;
      }

      .cls-1, .cls-2, .cls-3, .cls-4 {
        fill: none;
      }

      .cls-1, .cls-4 {
        stroke-miterlimit: 3;
      }

      .cls-2, .cls-3 {
        stroke-miterlimit: 5;
      }

      .cls-5 {
        fill: #fff;
      }

      .cls-3, .cls-4 {
        stroke: #b31942;
        stroke-width: 12px;
      }
    </style>
  </defs>
  <g>
    <g>
      <path d="M99.63,57.61v36.74c-8.25-1.63-16.47-3.14-24.67-4.52-5.09,1.76-10.17,3.56-15.23,5.41v21.82c6.99-2.56,14.01-5.02,21.05-7.4v21c-7.04,2.37-14.06,4.84-21.05,7.4v24.77c2.22,7.23,4.44,14.46,6.66,21.71-13.82,4.93-27.56,10.22-41.18,15.86,2.19-8.95,4.39-17.88,6.58-26.81v-67.58c-2.2-7.15-4.39-14.29-6.58-21.42,24.49-10.14,49.32-19.13,74.41-26.97Z"/>
      <path d="M179.81,117.85c0,2.52-.03,5.17-.07,7.97-.05,2.8-.3,5.59-.75,8.36-.45,2.78-1.19,5.48-2.24,8.11-1.04,2.63-2.61,5.05-4.7,7.26-2.58,2.76-5.56,4.74-8.93,5.96-3.37,1.22-6.59,2.21-9.66,2.95-6.38,1.56-12.75,3.19-19.11,4.89-1.87.5-3.84.98-5.91,1.44-2.07.46-4.11.73-6.12.81-2.01.08-3.93-.11-5.74-.57-1.82-.46-3.41-1.35-4.78-2.7-2.26-2.39-3.58-5.22-3.97-8.49-.39-3.27-.64-6.8-.73-10.6v-56.76c0-2.08.02-4.24.07-6.5.05-2.25.24-4.5.59-6.74.34-2.24.86-4.47,1.54-6.7.68-2.23,1.71-4.37,3.09-6.41,2.55-3.92,5.54-6.65,8.98-8.18,3.44-1.52,6.93-2.77,10.47-3.73,6.84-1.85,13.71-3.62,20.58-5.31,3.07-.75,5.74-1.28,8.02-1.6,2.28-.32,4.29-.43,6.02-.33,1.73.1,3.25.47,4.54,1.11,1.29.64,2.48,1.56,3.58,2.74,1.09,1.18,1.99,2.5,2.68,3.93.69,1.44,1.22,3.16,1.57,5.16.35,2,.6,4.3.75,6.9.15,2.59.22,5.59.22,8.97v48.06ZM135.54,71.34v67.58c5.17-1.38,10.36-2.71,15.55-3.99,0-22.53,0-45.05,0-67.58-5.19,1.28-10.38,2.61-15.55,3.99Z"/>
      <path d="M264.24,104.24c0,2.52-.03,5.17-.08,7.96-.05,2.79-.3,5.56-.75,8.29-.45,2.73-1.21,5.36-2.27,7.89-1.06,2.53-2.64,4.79-4.75,6.79-2.62,2.5-5.63,4.19-9.05,5.08-3.42.89-6.68,1.55-9.79,2-6.48.92-12.94,1.92-19.4,2.99-1.9.32-3.9.6-6,.85-2.1.26-4.18.32-6.22.2-2.05-.12-4-.5-5.84-1.14-1.85-.64-3.47-1.69-4.87-3.18-2.3-2.62-3.64-5.58-4.04-8.89-.4-3.31-.65-6.87-.75-10.68,0-18.92,0-37.84,0-56.76,0-2.08.02-4.24.07-6.49.05-2.25.25-4.48.6-6.68.35-2.2.87-4.38,1.57-6.54.7-2.16,1.74-4.2,3.14-6.11,2.59-3.67,5.64-6.1,9.14-7.28,3.5-1.18,7.05-2.08,10.65-2.68,6.96-1.17,13.92-2.26,20.9-3.27,3.11-.45,5.82-.71,8.13-.8,2.31-.09,4.35,0,6.11.27,1.76.27,3.29.79,4.6,1.56,1.31.77,2.51,1.8,3.62,3.09,1.11,1.29,2.01,2.69,2.72,4.2.7,1.51,1.23,3.28,1.59,5.31.35,2.04.6,4.36.76,6.97.15,2.61.23,5.61.23,9,0,16.02,0,32.04,0,48.06ZM219.34,53.35v67.58c5.26-.86,10.52-1.68,15.79-2.45,0-22.53,0-45.05,0-67.58-5.27.77-10.53,1.58-15.79,2.45Z"/>
      <path d="M362.72,60.25c-6.88-6.18-13.76-12.29-20.64-18.31-3.59.08-7.18.18-10.77.31v67.58c2.33,7.96,4.65,15.92,6.98,23.9-14.36.39-28.72,1.12-43.05,2.21,2.32-8.21,4.64-16.42,6.97-24.62V43.75c-3.59.24-7.17.51-10.75.8-6.86,6.73-13.72,13.54-20.57,20.43V22.33c30.53-3.18,61.18-4.75,91.83-4.72v42.65Z"/>
      <path d="M419.29,19.47c1.72.11,3.58.27,5.6.47,2.02.2,4.04.52,6.06.95,2.02.43,3.96,1.06,5.83,1.87,1.86.82,3.56,1.95,5.07,3.4,1.51,1.45,2.7,3.12,3.55,5.01.86,1.89,1.49,3.86,1.89,5.92.4,2.06.63,4.16.68,6.3.05,2.14.07,4.14.08,5.99,0,1.53-.03,3.2-.08,5-.05,1.8-.18,3.62-.38,5.46-.2,1.84-.53,3.61-.98,5.32-.45,1.71-1.13,3.23-2.04,4.56-.91,1.56-2.02,2.74-3.33,3.55-1.31.81-2.57,1.44-3.78,1.88-1.21.44-2.34.73-3.4.86-1.06.13-1.79.24-2.19.31,2.42.96,4.64,2.02,6.66,3.18,2.02,1.16,3.88,2.92,5.6,5.26,1.51,2.11,2.54,4.45,3.1,7.02.55,2.57.83,6.31.83,11.24,0,.11,0,.79,0,2.05,0,1.26-.03,2.76-.08,4.5-.05,1.75-.13,3.6-.23,5.55-.1,1.96-.3,3.74-.61,5.35-.6,4.21-1.79,7.37-3.55,9.5-1.77,2.13-3.91,3.63-6.43,4.51-2.52.88-5.32,1.28-8.4,1.21-3.08-.07-6.19-.21-9.31-.41-17.73-1.16-35.48-1.78-53.23-1.87,2.33-8.03,4.65-16.04,6.98-24.05V41.79c-2.33-8.07-4.65-16.13-6.98-24.17,17.7.09,35.41.71,53.08,1.86ZM402.16,64.45c5.61.26,11.22.57,16.82.93v-21.82c-5.61-.36-11.21-.67-16.82-.93,0,7.27,0,14.54,0,21.82ZM402.16,110.22c5.61.26,11.22.57,16.82.93v-24.44c-5.61-.36-11.21-.67-16.82-.93,0,8.15,0,16.29,0,24.44Z"/>
      <path d="M521.23,32.13c4.94,31.47,9.88,62.99,14.81,94.55,2.39,8.52,4.78,17.05,7.17,25.59-10.8-2.27-21.63-4.34-32.48-6.2-1.25-9.62-2.5-19.24-3.75-28.85-5.96-1-11.92-1.93-17.89-2.8-1.2,9.23-2.41,18.46-3.61,27.69-10.94-1.55-21.91-2.9-32.89-4.03,2.62-7.77,5.24-15.52,7.86-23.26,4.88-30.02,9.76-59.99,14.64-89.92,15.43,2,30.82,4.41,46.15,7.23ZM491.34,94.75c4.46.66,8.92,1.36,13.38,2.09-2.2-16.55-4.41-33.09-6.61-49.62-2.26,15.83-4.51,31.67-6.77,47.52Z"/>
      <path d="M587.64,47.03c-2.22,7.45-4.44,14.91-6.66,22.37v67.58c4.25,1.09,8.48,2.21,12.72,3.37v-20.5c8.86,2.42,17.69,4.98,26.49,7.68v44.62c-24.64-7.56-49.52-14.02-74.59-19.37,2.29-7.55,4.57-15.09,6.86-22.62V62.58c-2.28-8.54-4.57-17.08-6.86-25.61,14.07,3,28.09,6.36,42.04,10.06Z"/>
      <path d="M666.93,72.14c-2.17,7.24-4.34,14.48-6.51,21.74,0,22.53,0,45.05,0,67.58,4.15,1.5,8.3,3.03,12.43,4.59,0-6.83,0-13.67,0-20.5,8.66,3.27,17.27,6.68,25.85,10.23v44.62c-24.01-9.95-48.35-18.78-72.95-26.51,2.24-7.33,4.49-14.66,6.73-21.97v-67.58c-2.24-8.76-4.48-17.51-6.73-26.26,13.81,4.34,27.54,9.03,41.18,14.07Z"/>
    </g>
    <g>
      <path class="cls-2" d="M99.63,57.61v36.74c-8.25-1.63-16.47-3.14-24.67-4.52-5.09,1.76-10.17,3.56-15.23,5.41v21.82c6.99-2.56,14.01-5.02,21.05-7.4v21c-7.04,2.37-14.06,4.84-21.05,7.4v24.77c2.22,7.23,4.44,14.46,6.66,21.71-13.82,4.93-27.56,10.22-41.18,15.86,2.19-8.95,4.39-17.88,6.58-26.81v-67.58c-2.2-7.15-4.39-14.29-6.58-21.42,24.49-10.14,49.32-19.13,74.41-26.97Z"/>
      <path class="cls-2" d="M179.81,117.85c0,2.52-.03,5.17-.07,7.97-.05,2.8-.3,5.59-.75,8.36-.45,2.78-1.19,5.48-2.24,8.11-1.04,2.63-2.61,5.05-4.7,7.26-2.58,2.76-5.56,4.74-8.93,5.96-3.37,1.22-6.59,2.21-9.66,2.95-6.38,1.56-12.75,3.19-19.11,4.89-1.87.5-3.84.98-5.91,1.44-2.07.46-4.11.73-6.12.81-2.01.08-3.93-.11-5.74-.57-1.82-.46-3.41-1.35-4.78-2.7-2.26-2.39-3.58-5.22-3.97-8.49-.39-3.27-.64-6.8-.73-10.6v-56.76c0-2.08.02-4.24.07-6.5.05-2.25.24-4.5.59-6.74.34-2.24.86-4.47,1.54-6.7.68-2.23,1.71-4.37,3.09-6.41,2.55-3.92,5.54-6.65,8.98-8.18,3.44-1.52,6.93-2.77,10.47-3.73,6.84-1.85,13.71-3.62,20.58-5.31,3.07-.75,5.74-1.28,8.02-1.6,2.28-.32,4.29-.43,6.02-.33,1.73.1,3.25.47,4.54,1.11,1.29.64,2.48,1.56,3.58,2.74,1.09,1.18,1.99,2.5,2.68,3.93.69,1.44,1.22,3.16,1.57,5.16.35,2,.6,4.3.75,6.9.15,2.59.22,5.59.22,8.97v48.06ZM135.54,71.34v67.58c5.17-1.38,10.36-2.71,15.55-3.99,0-22.53,0-45.05,0-67.58-5.19,1.28-10.38,2.61-15.55,3.99Z"/>
      <path class="cls-2" d="M264.24,104.24c0,2.52-.03,5.17-.08,7.96-.05,2.79-.3,5.56-.75,8.29-.45,2.73-1.21,5.36-2.27,7.89-1.06,2.53-2.64,4.79-4.75,6.79-2.62,2.5-5.63,4.19-9.05,5.08-3.42.89-6.68,1.55-9.79,2-6.48.92-12.94,1.92-19.4,2.99-1.9.32-3.9.6-6,.85-2.1.26-4.18.32-6.22.2-2.05-.12-4-.5-5.84-1.14-1.85-.64-3.47-1.69-4.87-3.18-2.3-2.62-3.64-5.58-4.04-8.89-.4-3.31-.65-6.87-.75-10.68,0-18.92,0-37.84,0-56.76,0-2.08.02-4.24.07-6.49.05-2.25.25-4.48.6-6.68.35-2.2.87-4.38,1.57-6.54.7-2.16,1.74-4.2,3.14-6.11,2.59-3.67,5.64-6.1,9.14-7.28,3.5-1.18,7.05-2.08,10.65-2.68,6.96-1.17,13.92-2.26,20.9-3.27,3.11-.45,5.82-.71,8.13-.8,2.31-.09,4.35,0,6.11.27,1.76.27,3.29.79,4.6,1.56,1.31.77,2.51,1.8,3.62,3.09,1.11,1.29,2.01,2.69,2.72,4.2.7,1.51,1.23,3.28,1.59,5.31.35,2.04.6,4.36.76,6.97.15,2.61.23,5.61.23,9,0,16.02,0,32.04,0,48.06ZM219.34,53.35v67.58c5.26-.86,10.52-1.68,15.79-2.45,0-22.53,0-45.05,0-67.58-5.27.77-10.53,1.58-15.79,2.45Z"/>
      <path class="cls-2" d="M362.72,60.25c-6.88-6.18-13.76-12.29-20.64-18.31-3.59.08-7.18.18-10.77.31v67.58c2.33,7.96,4.65,15.92,6.98,23.9-14.36.39-28.72,1.12-43.05,2.21,2.32-8.21,4.64-16.42,6.97-24.62V43.75c-3.59.24-7.17.51-10.75.8-6.86,6.73-13.72,13.54-20.57,20.43V22.33c30.53-3.18,61.18-4.75,91.83-4.72v42.65Z"/>
      <path class="cls-2" d="M419.29,19.47c1.72.11,3.58.27,5.6.47,2.02.2,4.04.52,6.06.95,2.02.43,3.96,1.06,5.83,1.87,1.86.82,3.56,1.95,5.07,3.4,1.51,1.45,2.7,3.12,3.55,5.01.86,1.89,1.49,3.86,1.89,5.92.4,2.06.63,4.16.68,6.3.05,2.14.07,4.14.08,5.99,0,1.53-.03,3.2-.08,5-.05,1.8-.18,3.62-.38,5.46-.2,1.84-.53,3.61-.98,5.32-.45,1.71-1.13,3.23-2.04,4.56-.91,1.56-2.02,2.74-3.33,3.55-1.31.81-2.57,1.44-3.78,1.88-1.21.44-2.34.73-3.4.86-1.06.13-1.79.24-2.19.31,2.42.96,4.64,2.02,6.66,3.18,2.02,1.16,3.88,2.92,5.6,5.26,1.51,2.11,2.54,4.45,3.1,7.02.55,2.57.83,6.31.83,11.24,0,.11,0,.79,0,2.05,0,1.26-.03,2.76-.08,4.5-.05,1.75-.13,3.6-.23,5.55-.1,1.96-.3,3.74-.61,5.35-.6,4.21-1.79,7.37-3.55,9.5-1.77,2.13-3.91,3.63-6.43,4.51-2.52.88-5.32,1.28-8.4,1.21-3.08-.07-6.19-.21-9.31-.41-17.73-1.16-35.48-1.78-53.23-1.87,2.33-8.03,4.65-16.04,6.98-24.05V41.79c-2.33-8.07-4.65-16.13-6.98-24.17,17.7.09,35.41.71,53.08,1.86ZM402.16,64.45c5.61.26,11.22.57,16.82.93v-21.82c-5.61-.36-11.21-.67-16.82-.93,0,7.27,0,14.54,0,21.82ZM402.16,110.22c5.61.26,11.22.57,16.82.93v-24.44c-5.61-.36-11.21-.67-16.82-.93,0,8.15,0,16.29,0,24.44Z"/>
      <path class="cls-2" d="M521.23,32.13c4.94,31.47,9.88,62.99,14.81,94.55,2.39,8.52,4.78,17.05,7.17,25.59-10.8-2.27-21.63-4.34-32.48-6.2-1.25-9.62-2.5-19.24-3.75-28.85-5.96-1-11.92-1.93-17.89-2.8-1.2,9.23-2.41,18.46-3.61,27.69-10.94-1.55-21.91-2.9-32.89-4.03,2.62-7.77,5.24-15.52,7.86-23.26,4.88-30.02,9.76-59.99,14.64-89.92,15.43,2,30.82,4.41,46.15,7.23ZM491.34,94.75c4.46.66,8.92,1.36,13.38,2.09-2.2-16.55-4.41-33.09-6.61-49.62-2.26,15.83-4.51,31.67-6.77,47.52Z"/>
      <path class="cls-2" d="M587.64,47.03c-2.22,7.45-4.44,14.91-6.66,22.37v67.58c4.25,1.09,8.48,2.21,12.72,3.37v-20.5c8.86,2.42,17.69,4.98,26.49,7.68v44.62c-24.64-7.56-49.52-14.02-74.59-19.37,2.29-7.55,4.57-15.09,6.86-22.62V62.58c-2.28-8.54-4.57-17.08-6.86-25.61,14.07,3,28.09,6.36,42.04,10.06Z"/>
      <path class="cls-2" d="M666.93,72.14c-2.17,7.24-4.34,14.48-6.51,21.74,0,22.53,0,45.05,0,67.58,4.15,1.5,8.3,3.03,12.43,4.59,0-6.83,0-13.67,0-20.5,8.66,3.27,17.27,6.68,25.85,10.23v44.62c-24.01-9.95-48.35-18.78-72.95-26.51,2.24-7.33,4.49-14.66,6.73-21.97v-67.58c-2.24-8.76-4.48-17.51-6.73-26.26,13.81,4.34,27.54,9.03,41.18,14.07Z"/>
    </g>
    <g>
      <path class="cls-3" d="M99.63,57.61v36.74c-8.25-1.63-16.47-3.14-24.67-4.52-5.09,1.76-10.17,3.56-15.23,5.41v21.82c6.99-2.56,14.01-5.02,21.05-7.4v21c-7.04,2.37-14.06,4.84-21.05,7.4v24.77c2.22,7.23,4.44,14.46,6.66,21.71-13.82,4.93-27.56,10.22-41.18,15.86,2.19-8.95,4.39-17.88,6.58-26.81v-67.58c-2.2-7.15-4.39-14.29-6.58-21.42,24.49-10.14,49.32-19.13,74.41-26.97Z"/>
      <path class="cls-3" d="M179.81,117.85c0,2.52-.03,5.17-.07,7.97-.05,2.8-.3,5.59-.75,8.36-.45,2.78-1.19,5.48-2.24,8.11-1.04,2.63-2.61,5.05-4.7,7.26-2.58,2.76-5.56,4.74-8.93,5.96-3.37,1.22-6.59,2.21-9.66,2.95-6.38,1.56-12.75,3.19-19.11,4.89-1.87.5-3.84.98-5.91,1.44-2.07.46-4.11.73-6.12.81-2.01.08-3.93-.11-5.74-.57-1.82-.46-3.41-1.35-4.78-2.7-2.26-2.39-3.58-5.22-3.97-8.49-.39-3.27-.64-6.8-.73-10.6v-56.76c0-2.08.02-4.24.07-6.5.05-2.25.24-4.5.59-6.74.34-2.24.86-4.47,1.54-6.7.68-2.23,1.71-4.37,3.09-6.41,2.55-3.92,5.54-6.65,8.98-8.18,3.44-1.52,6.93-2.77,10.47-3.73,6.84-1.85,13.71-3.62,20.58-5.31,3.07-.75,5.74-1.28,8.02-1.6,2.28-.32,4.29-.43,6.02-.33,1.73.1,3.25.47,4.54,1.11,1.29.64,2.48,1.56,3.58,2.74,1.09,1.18,1.99,2.5,2.68,3.93.69,1.44,1.22,3.16,1.57,5.16.35,2,.6,4.3.75,6.9.15,2.59.22,5.59.22,8.97v48.06ZM135.54,71.34v67.58c5.17-1.38,10.36-2.71,15.55-3.99,0-22.53,0-45.05,0-67.58-5.19,1.28-10.38,2.61-15.55,3.99Z"/>
      <path class="cls-3" d="M264.24,104.24c0,2.52-.03,5.17-.08,7.96-.05,2.79-.3,5.56-.75,8.29-.45,2.73-1.21,5.36-2.27,7.89-1.06,2.53-2.64,4.79-4.75,6.79-2.62,2.5-5.63,4.19-9.05,5.08-3.42.89-6.68,1.55-9.79,2-6.48.92-12.94,1.92-19.4,2.99-1.9.32-3.9.6-6,.85-2.1.26-4.18.32-6.22.2-2.05-.12-4-.5-5.84-1.14-1.85-.64-3.47-1.69-4.87-3.18-2.3-2.62-3.64-5.58-4.04-8.89-.4-3.31-.65-6.87-.75-10.68,0-18.92,0-37.84,0-56.76,0-2.08.02-4.24.07-6.49.05-2.25.25-4.48.6-6.68.35-2.2.87-4.38,1.57-6.54.7-2.16,1.74-4.2,3.14-6.11,2.59-3.67,5.64-6.1,9.14-7.28,3.5-1.18,7.05-2.08,10.65-2.68,6.96-1.17,13.92-2.26,20.9-3.27,3.11-.45,5.82-.71,8.13-.8,2.31-.09,4.35,0,6.11.27,1.76.27,3.29.79,4.6,1.56,1.31.77,2.51,1.8,3.62,3.09,1.11,1.29,2.01,2.69,2.72,4.2.7,1.51,1.23,3.28,1.59,5.31.35,2.04.6,4.36.76,6.97.15,2.61.23,5.61.23,9,0,16.02,0,32.04,0,48.06ZM219.34,53.35v67.58c5.26-.86,10.52-1.68,15.79-2.45,0-22.53,0-45.05,0-67.58-5.27.77-10.53,1.58-15.79,2.45Z"/>
      <path class="cls-3" d="M362.72,60.25c-6.88-6.18-13.76-12.29-20.64-18.31-3.59.08-7.18.18-10.77.31v67.58c2.33,7.96,4.65,15.92,6.98,23.9-14.36.39-28.72,1.12-43.05,2.21,2.32-8.21,4.64-16.42,6.97-24.62V43.75c-3.59.24-7.17.51-10.75.8-6.86,6.73-13.72,13.54-20.57,20.43V22.33c30.53-3.18,61.18-4.75,91.83-4.72v42.65Z"/>
      <path class="cls-3" d="M419.29,19.47c1.72.11,3.58.27,5.6.47,2.02.2,4.04.52,6.06.95,2.02.43,3.96,1.06,5.83,1.87,1.86.82,3.56,1.95,5.07,3.4,1.51,1.45,2.7,3.12,3.55,5.01.86,1.89,1.49,3.86,1.89,5.92.4,2.06.63,4.16.68,6.3.05,2.14.07,4.14.08,5.99,0,1.53-.03,3.2-.08,5-.05,1.8-.18,3.62-.38,5.46-.2,1.84-.53,3.61-.98,5.32-.45,1.71-1.13,3.23-2.04,4.56-.91,1.56-2.02,2.74-3.33,3.55-1.31.81-2.57,1.44-3.78,1.88-1.21.44-2.34.73-3.4.86-1.06.13-1.79.24-2.19.31,2.42.96,4.64,2.02,6.66,3.18,2.02,1.16,3.88,2.92,5.6,5.26,1.51,2.11,2.54,4.45,3.1,7.02.55,2.57.83,6.31.83,11.24,0,.11,0,.79,0,2.05,0,1.26-.03,2.76-.08,4.5-.05,1.75-.13,3.6-.23,5.55-.1,1.96-.3,3.74-.61,5.35-.6,4.21-1.79,7.37-3.55,9.5-1.77,2.13-3.91,3.63-6.43,4.51-2.52.88-5.32,1.28-8.4,1.21-3.08-.07-6.19-.21-9.31-.41-17.73-1.16-35.48-1.78-53.23-1.87,2.33-8.03,4.65-16.04,6.98-24.05V41.79c-2.33-8.07-4.65-16.13-6.98-24.17,17.7.09,35.41.71,53.08,1.86ZM402.16,64.45c5.61.26,11.22.57,16.82.93v-21.82c-5.61-.36-11.21-.67-16.82-.93,0,7.27,0,14.54,0,21.82ZM402.16,110.22c5.61.26,11.22.57,16.82.93v-24.44c-5.61-.36-11.21-.67-16.82-.93,0,8.15,0,16.29,0,24.44Z"/>
      <path class="cls-3" d="M521.23,32.13c4.94,31.47,9.88,62.99,14.81,94.55,2.39,8.52,4.78,17.05,7.17,25.59-10.8-2.27-21.63-4.34-32.48-6.2-1.25-9.62-2.5-19.24-3.75-28.85-5.96-1-11.92-1.93-17.89-2.8-1.2,9.23-2.41,18.46-3.61,27.69-10.94-1.55-21.91-2.9-32.89-4.03,2.62-7.77,5.24-15.52,7.86-23.26,4.88-30.02,9.76-59.99,14.64-89.92,15.43,2,30.82,4.41,46.15,7.23ZM491.34,94.75c4.46.66,8.92,1.36,13.38,2.09-2.2-16.55-4.41-33.09-6.61-49.62-2.26,15.83-4.51,31.67-6.77,47.52Z"/>
      <path class="cls-3" d="M587.64,47.03c-2.22,7.45-4.44,14.91-6.66,22.37v67.58c4.25,1.09,8.48,2.21,12.72,3.37v-20.5c8.86,2.42,17.69,4.98,26.49,7.68v44.62c-24.64-7.56-49.52-14.02-74.59-19.37,2.29-7.55,4.57-15.09,6.86-22.62V62.58c-2.28-8.54-4.57-17.08-6.86-25.61,14.07,3,28.09,6.36,42.04,10.06Z"/>
      <path class="cls-3" d="M666.93,72.14c-2.17,7.24-4.34,14.48-6.51,21.74,0,22.53,0,45.05,0,67.58,4.15,1.5,8.3,3.03,12.43,4.59,0-6.83,0-13.67,0-20.5,8.66,3.27,17.27,6.68,25.85,10.23v44.62c-24.01-9.95-48.35-18.78-72.95-26.51,2.24-7.33,4.49-14.66,6.73-21.97v-67.58c-2.24-8.76-4.48-17.51-6.73-26.26,13.81,4.34,27.54,9.03,41.18,14.07Z"/>
    </g>
    <g>
      <path class="cls-5" d="M99.63,57.61v36.74c-8.25-1.63-16.47-3.14-24.67-4.52-5.09,1.76-10.17,3.56-15.23,5.41v21.82c6.99-2.56,14.01-5.02,21.05-7.4v21c-7.04,2.37-14.06,4.84-21.05,7.4v24.77c2.22,7.23,4.44,14.46,6.66,21.71-13.82,4.93-27.56,10.22-41.18,15.86,2.19-8.95,4.39-17.88,6.58-26.81v-67.58c-2.2-7.15-4.39-14.29-6.58-21.42,24.49-10.14,49.32-19.13,74.41-26.97Z"/>
      <path class="cls-5" d="M179.81,117.85c0,2.52-.03,5.17-.07,7.97-.05,2.8-.3,5.59-.75,8.36-.45,2.78-1.19,5.48-2.24,8.11-1.04,2.63-2.61,5.05-4.7,7.26-2.58,2.76-5.56,4.74-8.93,5.96-3.37,1.22-6.59,2.21-9.66,2.95-6.38,1.56-12.75,3.19-19.11,4.89-1.87.5-3.84.98-5.91,1.44-2.07.46-4.11.73-6.12.81-2.01.08-3.93-.11-5.74-.57-1.82-.46-3.41-1.35-4.78-2.7-2.26-2.39-3.58-5.22-3.97-8.49-.39-3.27-.64-6.8-.73-10.6v-56.76c0-2.08.02-4.24.07-6.5.05-2.25.24-4.5.59-6.74.34-2.24.86-4.47,1.54-6.7.68-2.23,1.71-4.37,3.09-6.41,2.55-3.92,5.54-6.65,8.98-8.18,3.44-1.52,6.93-2.77,10.47-3.73,6.84-1.85,13.71-3.62,20.58-5.31,3.07-.75,5.74-1.28,8.02-1.6,2.28-.32,4.29-.43,6.02-.33,1.73.1,3.25.47,4.54,1.11,1.29.64,2.48,1.56,3.58,2.74,1.09,1.18,1.99,2.5,2.68,3.93.69,1.44,1.22,3.16,1.57,5.16.35,2,.6,4.3.75,6.9.15,2.59.22,5.59.22,8.97v48.06ZM135.54,71.34v67.58c5.17-1.38,10.36-2.71,15.55-3.99,0-22.53,0-45.05,0-67.58-5.19,1.28-10.38,2.61-15.55,3.99Z"/>
      <path class="cls-5" d="M264.24,104.24c0,2.52-.03,5.17-.08,7.96-.05,2.79-.3,5.56-.75,8.29-.45,2.73-1.21,5.36-2.27,7.89-1.06,2.53-2.64,4.79-4.75,6.79-2.62,2.5-5.63,4.19-9.05,5.08-3.42.89-6.68,1.55-9.79,2-6.48.92-12.94,1.92-19.4,2.99-1.9.32-3.9.6-6,.85-2.1.26-4.18.32-6.22.2-2.05-.12-4-.5-5.84-1.14-1.85-.64-3.47-1.69-4.87-3.18-2.3-2.62-3.64-5.58-4.04-8.89-.4-3.31-.65-6.87-.75-10.68,0-18.92,0-37.84,0-56.76,0-2.08.02-4.24.07-6.49.05-2.25.25-4.48.6-6.68.35-2.2.87-4.38,1.57-6.54.7-2.16,1.74-4.2,3.14-6.11,2.59-3.67,5.64-6.1,9.14-7.28,3.5-1.18,7.05-2.08,10.65-2.68,6.96-1.17,13.92-2.26,20.9-3.27,3.11-.45,5.82-.71,8.13-.8,2.31-.09,4.35,0,6.11.27,1.76.27,3.29.79,4.6,1.56,1.31.77,2.51,1.8,3.62,3.09,1.11,1.29,2.01,2.69,2.72,4.2.7,1.51,1.23,3.28,1.59,5.31.35,2.04.6,4.36.76,6.97.15,2.61.23,5.61.23,9,0,16.02,0,32.04,0,48.06ZM219.34,53.35v67.58c5.26-.86,10.52-1.68,15.79-2.45,0-22.53,0-45.05,0-67.58-5.27.77-10.53,1.58-15.79,2.45Z"/>
      <path class="cls-5" d="M362.72,60.25c-6.88-6.18-13.76-12.29-20.64-18.31-3.59.08-7.18.18-10.77.31v67.58c2.33,7.96,4.65,15.92,6.98,23.9-14.36.39-28.72,1.12-43.05,2.21,2.32-8.21,4.64-16.42,6.97-24.62V43.75c-3.59.24-7.17.51-10.75.8-6.86,6.73-13.72,13.54-20.57,20.43V22.33c30.53-3.18,61.18-4.75,91.83-4.72v42.65Z"/>
      <path class="cls-5" d="M419.29,19.47c1.72.11,3.58.27,5.6.47,2.02.2,4.04.52,6.06.95,2.02.43,3.96,1.06,5.83,1.87,1.86.82,3.56,1.95,5.07,3.4,1.51,1.45,2.7,3.12,3.55,5.01.86,1.89,1.49,3.86,1.89,5.92.4,2.06.63,4.16.68,6.3.05,2.14.07,4.14.08,5.99,0,1.53-.03,3.2-.08,5-.05,1.8-.18,3.62-.38,5.46-.2,1.84-.53,3.61-.98,5.32-.45,1.71-1.13,3.23-2.04,4.56-.91,1.56-2.02,2.74-3.33,3.55-1.31.81-2.57,1.44-3.78,1.88-1.21.44-2.34.73-3.4.86-1.06.13-1.79.24-2.19.31,2.42.96,4.64,2.02,6.66,3.18,2.02,1.16,3.88,2.92,5.6,5.26,1.51,2.11,2.54,4.45,3.1,7.02.55,2.57.83,6.31.83,11.24,0,.11,0,.79,0,2.05,0,1.26-.03,2.76-.08,4.5-.05,1.75-.13,3.6-.23,5.55-.1,1.96-.3,3.74-.61,5.35-.6,4.21-1.79,7.37-3.55,9.5-1.77,2.13-3.91,3.63-6.43,4.51-2.52.88-5.32,1.28-8.4,1.21-3.08-.07-6.19-.21-9.31-.41-17.73-1.16-35.48-1.78-53.23-1.87,2.33-8.03,4.65-16.04,6.98-24.05V41.79c-2.33-8.07-4.65-16.13-6.98-24.17,17.7.09,35.41.71,53.08,1.86ZM402.16,64.45c5.61.26,11.22.57,16.82.93v-21.82c-5.61-.36-11.21-.67-16.82-.93,0,7.27,0,14.54,0,21.82ZM402.16,110.22c5.61.26,11.22.57,16.82.93v-24.44c-5.61-.36-11.21-.67-16.82-.93,0,8.15,0,16.29,0,24.44Z"/>
      <path class="cls-5" d="M521.23,32.13c4.94,31.47,9.88,62.99,14.81,94.55,2.39,8.52,4.78,17.05,7.17,25.59-10.8-2.27-21.63-4.34-32.48-6.2-1.25-9.62-2.5-19.24-3.75-28.85-5.96-1-11.92-1.93-17.89-2.8-1.2,9.23-2.41,18.46-3.61,27.69-10.94-1.55-21.91-2.9-32.89-4.03,2.62-7.77,5.24-15.52,7.86-23.26,4.88-30.02,9.76-59.99,14.64-89.92,15.43,2,30.82,4.41,46.15,7.23ZM491.34,94.75c4.46.66,8.92,1.36,13.38,2.09-2.2-16.55-4.41-33.09-6.61-49.62-2.26,15.83-4.51,31.67-6.77,47.52Z"/>
      <path class="cls-5" d="M587.64,47.03c-2.22,7.45-4.44,14.91-6.66,22.37v67.58c4.25,1.09,8.48,2.21,12.72,3.37v-20.5c8.86,2.42,17.69,4.98,26.49,7.68v44.62c-24.64-7.56-49.52-14.02-74.59-19.37,2.29-7.55,4.57-15.09,6.86-22.62V62.58c-2.28-8.54-4.57-17.08-6.86-25.61,14.07,3,28.09,6.36,42.04,10.06Z"/>
      <path class="cls-5" d="M666.93,72.14c-2.17,7.24-4.34,14.48-6.51,21.74,0,22.53,0,45.05,0,67.58,4.15,1.5,8.3,3.03,12.43,4.59,0-6.83,0-13.67,0-20.5,8.66,3.27,17.27,6.68,25.85,10.23v44.62c-24.01-9.95-48.35-18.78-72.95-26.51,2.24-7.33,4.49-14.66,6.73-21.97v-67.58c-2.24-8.76-4.48-17.51-6.73-26.26,13.81,4.34,27.54,9.03,41.18,14.07Z"/>
    </g>
  </g>
  <g id="SCHLAND">
    <g>
      <path d="M183.8,198.91c-6.57-.96-13.12-1.85-19.66-2.66-4.09.95-8.18,1.92-12.27,2.92v14.96c4.92-1.21,9.85-2.38,14.79-3.5.61-.14,1.26-.29,1.95-.44.69-.16,1.38-.27,2.07-.35.46-.1,1.22-.21,2.3-.33,1.07-.12,2.26-.11,3.57.03,1.3.14,2.65.5,4.03,1.05,1.38.56,2.53,1.56,3.46,2.99,1.07,1.48,1.71,3.13,1.9,4.95.19,1.82.29,3.69.29,5.63v13.22c0,1.39-.04,2.81-.12,4.26-.08,1.45-.31,2.9-.69,4.38-.85,3.04-2.15,5.47-3.92,7.31-1.77,1.84-3.61,3.26-5.52,4.25-1.92,1-3.7,1.68-5.35,2.04-1.65.37-2.81.63-3.5.79-12.1,2.75-24.15,5.76-36.15,9.02v-25.06c6.95.78,13.92,1.64,20.9,2.59,4.08-1,8.17-1.98,12.27-2.92v-16.47c-5.39,1.25-10.78,2.54-16.16,3.89-.61.15-1.18.28-1.72.37-.53.1-1.11.22-1.71.38-.46.12-1.14.23-2.06.35-.91.12-1.92.11-3.03-.03-1.1-.14-2.23-.42-3.37-.85-1.14-.43-2.21-1.17-3.19-2.22-1.37-1.49-2.18-3.16-2.45-5.02-.27-1.86-.48-3.89-.63-6.09v-13.57c.15-2.36.4-4.56.74-6.58.34-2.03,1.27-4.13,2.79-6.32,1.98-2.85,4.26-4.87,6.85-6.05,2.59-1.18,5.22-2.1,7.89-2.77,11.86-2.97,23.76-5.7,35.71-8.17v24.01Z"/>
      <path d="M247.84,190.53c-6.32.83-12.63,1.73-18.93,2.69,0-3.13,0-6.26,0-9.4-4.06.62-8.12,1.27-12.17,1.95,0,15.93,0,31.86,0,47.79,4.05-.68,8.11-1.33,12.17-1.95,0-4.37,0-8.74,0-13.11,6.61-1.01,13.24-1.95,19.86-2.82v30.16c-11.24,1.46-22.46,3.14-33.66,5.04-.85.14-1.68.29-2.49.43-.81.14-1.64.25-2.49.32-3.78.43-6.65.23-8.61-.65-1.96-.87-3.45-1.94-4.45-3.22-.62-.81-1.08-1.63-1.39-2.46-.31-.83-.58-1.76-.81-2.8-.15-.82-.25-1.67-.29-2.55-.04-.88-.06-2.21-.06-3.99,0-14.5,0-29,0-43.5,0-2.71.17-5.31.52-7.82.35-2.5,1.48-5.02,3.41-7.55,1.08-1.44,2.29-2.64,3.64-3.58,1.35-.95,2.77-1.71,4.28-2.29,1.5-.58,3.03-1.04,4.57-1.39,1.54-.35,3.09-.65,4.63-.91,10.73-1.81,21.49-3.43,32.26-4.84v26.45Z"/>
      <path d="M280.1,160.45c0,10.59,0,21.19,0,31.78,3.85-.36,7.7-.7,11.55-1.01v-31.78c9.3-.75,18.61-1.35,27.93-1.81-1.79,5.77-3.59,11.55-5.38,17.33v47.79c1.79,5.59,3.59,11.18,5.38,16.77-9.32.45-18.63,1.06-27.93,1.81v-32.94c-3.85.31-7.7.65-11.55,1.01,0,10.98,0,21.96,0,32.94-9.25.87-18.5,1.89-27.73,3.05,1.78-5.91,3.57-11.81,5.35-17.71v-47.79c-1.79-5.47-3.57-10.93-5.35-16.39,9.23-1.16,18.48-2.18,27.73-3.05Z"/>
      <path d="M356.09,156.61c-1.76,5.7-3.51,11.4-5.27,17.11v47.79c3.36-.04,6.71-.07,10.07-.08v-14.5c7.02-.01,14.05.06,21.07.21,0,10.52,0,21.03,0,31.55-19.66-.43-39.33-.21-58.98.68,1.79-5.76,3.59-11.52,5.38-17.28v-47.79c-1.79-5.61-3.59-11.22-5.38-16.83,11.03-.5,22.07-.78,33.11-.87Z"/>
      <path d="M437.95,159.81c3.85,21.95,7.7,43.92,11.55,65.91,1.87,5.87,3.73,11.74,5.6,17.62-8.43-.89-16.87-1.66-25.32-2.3-.97-6.73-1.95-13.45-2.92-20.17-4.63-.34-9.27-.64-13.91-.91-.94,6.6-1.87,13.2-2.81,19.8-8.5-.46-17-.79-25.5-1.01,2.03-5.63,4.06-11.26,6.08-16.88,3.78-21.49,7.57-42.96,11.35-64.41,11.97.54,23.93,1.32,35.87,2.34ZM414.7,205.92c3.47.21,6.93.43,10.4.68-1.71-11.57-3.43-23.13-5.14-34.69-1.75,11.33-3.51,22.67-5.26,34.01Z"/>
      <path d="M525.56,188.82v47.79c1.77,6.02,3.54,12.04,5.31,18.07-8.66-1.68-17.33-3.23-26.02-4.65-7.73-17.12-15.46-34.13-23.21-51.04.27,15.89.54,31.78.81,47.67-8.45-1.16-16.9-2.19-25.37-3.11,1.79-5.49,3.57-10.98,5.36-16.46v-47.79c-1.79-5.89-3.57-11.77-5.36-17.65,8.78.95,17.55,2.02,26.3,3.23,7.75,17.04,15.48,34.18,23.21,51.43-.23-16.01-.46-32.02-.7-48.02,8.34,1.37,16.67,2.87,24.98,4.48-1.77,5.34-3.54,10.69-5.31,16.04Z"/>
      <path d="M575.36,182.63c2.44.61,4.99,1.39,7.66,2.35,2.66.96,5.06,2.62,7.19,4.96,1.21,1.41,2.18,2.93,2.91,4.55.72,1.63,1.23,3.27,1.54,4.94.3,1.67.49,3.32.57,4.97.07,1.64.11,3.24.11,4.79v38.28c0,2.78-.17,5.68-.51,8.68-.34,3-1.35,5.43-3.02,7.3-.99,1.05-2.11,1.75-3.37,2.12-1.25.36-2.57.54-3.94.53-1.37,0-2.8-.16-4.28-.46-1.49-.3-2.95-.63-4.4-.99-13.81-3.44-27.68-6.54-41.6-9.3,1.73-5.34,3.46-10.68,5.19-16.01v-47.79c-1.73-6.04-3.46-12.07-5.19-18.1,13.77,2.73,27.48,5.79,41.14,9.19ZM561.49,196.36v47.79c3.98.92,7.95,1.87,11.92,2.85v-47.79c-3.97-.98-7.94-1.93-11.92-2.85Z"/>
    </g>
    <g>
      <path class="cls-1" d="M183.8,198.91c-6.57-.96-13.12-1.85-19.66-2.66-4.09.95-8.18,1.92-12.27,2.92v14.96c4.92-1.21,9.85-2.38,14.79-3.5.61-.14,1.26-.29,1.95-.44.69-.16,1.38-.27,2.07-.35.46-.1,1.22-.21,2.3-.33,1.07-.12,2.26-.11,3.57.03,1.3.14,2.65.5,4.03,1.05,1.38.56,2.53,1.56,3.46,2.99,1.07,1.48,1.71,3.13,1.9,4.95.19,1.82.29,3.69.29,5.63v13.22c0,1.39-.04,2.81-.12,4.26-.08,1.45-.31,2.9-.69,4.38-.85,3.04-2.15,5.47-3.92,7.31-1.77,1.84-3.61,3.26-5.52,4.25-1.92,1-3.7,1.68-5.35,2.04-1.65.37-2.81.63-3.5.79-12.1,2.75-24.15,5.76-36.15,9.02v-25.06c6.95.78,13.92,1.64,20.9,2.59,4.08-1,8.17-1.98,12.27-2.92v-16.47c-5.39,1.25-10.78,2.54-16.16,3.89-.61.15-1.18.28-1.72.37-.53.1-1.11.22-1.71.38-.46.12-1.14.23-2.06.35-.91.12-1.92.11-3.03-.03-1.1-.14-2.23-.42-3.37-.85-1.14-.43-2.21-1.17-3.19-2.22-1.37-1.49-2.18-3.16-2.45-5.02-.27-1.86-.48-3.89-.63-6.09v-13.57c.15-2.36.4-4.56.74-6.58.34-2.03,1.27-4.13,2.79-6.32,1.98-2.85,4.26-4.87,6.85-6.05,2.59-1.18,5.22-2.1,7.89-2.77,11.86-2.97,23.76-5.7,35.71-8.17v24.01Z"/>
      <path class="cls-1" d="M247.84,190.53c-6.32.83-12.63,1.73-18.93,2.69,0-3.13,0-6.26,0-9.4-4.06.62-8.12,1.27-12.17,1.95,0,15.93,0,31.86,0,47.79,4.05-.68,8.11-1.33,12.17-1.95,0-4.37,0-8.74,0-13.11,6.61-1.01,13.24-1.95,19.86-2.82v30.16c-11.24,1.46-22.46,3.14-33.66,5.04-.85.14-1.68.29-2.49.43-.81.14-1.64.25-2.49.32-3.78.43-6.65.23-8.61-.65-1.96-.87-3.45-1.94-4.45-3.22-.62-.81-1.08-1.63-1.39-2.46-.31-.83-.58-1.76-.81-2.8-.15-.82-.25-1.67-.29-2.55-.04-.88-.06-2.21-.06-3.99,0-14.5,0-29,0-43.5,0-2.71.17-5.31.52-7.82.35-2.5,1.48-5.02,3.41-7.55,1.08-1.44,2.29-2.64,3.64-3.58,1.35-.95,2.77-1.71,4.28-2.29,1.5-.58,3.03-1.04,4.57-1.39,1.54-.35,3.09-.65,4.63-.91,10.73-1.81,21.49-3.43,32.26-4.84v26.45Z"/>
      <path class="cls-1" d="M280.1,160.45c0,10.59,0,21.19,0,31.78,3.85-.36,7.7-.7,11.55-1.01v-31.78c9.3-.75,18.61-1.35,27.93-1.81-1.79,5.77-3.59,11.55-5.38,17.33v47.79c1.79,5.59,3.59,11.18,5.38,16.77-9.32.45-18.63,1.06-27.93,1.81v-32.94c-3.85.31-7.7.65-11.55,1.01,0,10.98,0,21.96,0,32.94-9.25.87-18.5,1.89-27.73,3.05,1.78-5.91,3.57-11.81,5.35-17.71v-47.79c-1.79-5.47-3.57-10.93-5.35-16.39,9.23-1.16,18.48-2.18,27.73-3.05Z"/>
      <path class="cls-1" d="M356.09,156.61c-1.76,5.7-3.51,11.4-5.27,17.11v47.79c3.36-.04,6.71-.07,10.07-.08v-14.5c7.02-.01,14.05.06,21.07.21,0,10.52,0,21.03,0,31.55-19.66-.43-39.33-.21-58.98.68,1.79-5.76,3.59-11.52,5.38-17.28v-47.79c-1.79-5.61-3.59-11.22-5.38-16.83,11.03-.5,22.07-.78,33.11-.87Z"/>
      <path class="cls-1" d="M437.95,159.81c3.85,21.95,7.7,43.92,11.55,65.91,1.87,5.87,3.73,11.74,5.6,17.62-8.43-.89-16.87-1.66-25.32-2.3-.97-6.73-1.95-13.45-2.92-20.17-4.63-.34-9.27-.64-13.91-.91-.94,6.6-1.87,13.2-2.81,19.8-8.5-.46-17-.79-25.5-1.01,2.03-5.63,4.06-11.26,6.08-16.88,3.78-21.49,7.57-42.96,11.35-64.41,11.97.54,23.93,1.32,35.87,2.34ZM414.7,205.92c3.47.21,6.93.43,10.4.68-1.71-11.57-3.43-23.13-5.14-34.69-1.75,11.33-3.51,22.67-5.26,34.01Z"/>
      <path class="cls-1" d="M525.56,188.82v47.79c1.77,6.02,3.54,12.04,5.31,18.07-8.66-1.68-17.33-3.23-26.02-4.65-7.73-17.12-15.46-34.13-23.21-51.04.27,15.89.54,31.78.81,47.67-8.45-1.16-16.9-2.19-25.37-3.11,1.79-5.49,3.57-10.98,5.36-16.46v-47.79c-1.79-5.89-3.57-11.77-5.36-17.65,8.78.95,17.55,2.02,26.3,3.23,7.75,17.04,15.48,34.18,23.21,51.43-.23-16.01-.46-32.02-.7-48.02,8.34,1.37,16.67,2.87,24.98,4.48-1.77,5.34-3.54,10.69-5.31,16.04Z"/>
      <path class="cls-1" d="M575.36,182.63c2.44.61,4.99,1.39,7.66,2.35,2.66.96,5.06,2.62,7.19,4.96,1.21,1.41,2.18,2.93,2.91,4.55.72,1.63,1.23,3.27,1.54,4.94.3,1.67.49,3.32.57,4.97.07,1.64.11,3.24.11,4.79v38.28c0,2.78-.17,5.68-.51,8.68-.34,3-1.35,5.43-3.02,7.3-.99,1.05-2.11,1.75-3.37,2.12-1.25.36-2.57.54-3.94.53-1.37,0-2.8-.16-4.28-.46-1.49-.3-2.95-.63-4.4-.99-13.81-3.44-27.68-6.54-41.6-9.3,1.73-5.34,3.46-10.68,5.19-16.01v-47.79c-1.73-6.04-3.46-12.07-5.19-18.1,13.77,2.73,27.48,5.79,41.14,9.19ZM561.49,196.36v47.79c3.98.92,7.95,1.87,11.92,2.85v-47.79c-3.97-.98-7.94-1.93-11.92-2.85Z"/>
    </g>
    <g>
      <path class="cls-4" d="M183.8,198.91c-6.57-.96-13.12-1.85-19.66-2.66-4.09.95-8.18,1.92-12.27,2.92v14.96c4.92-1.21,9.85-2.38,14.79-3.5.61-.14,1.26-.29,1.95-.44.69-.16,1.38-.27,2.07-.35.46-.1,1.22-.21,2.3-.33,1.07-.12,2.26-.11,3.57.03,1.3.14,2.65.5,4.03,1.05,1.38.56,2.53,1.56,3.46,2.99,1.07,1.48,1.71,3.13,1.9,4.95.19,1.82.29,3.69.29,5.63v13.22c0,1.39-.04,2.81-.12,4.26-.08,1.45-.31,2.9-.69,4.38-.85,3.04-2.15,5.47-3.92,7.31-1.77,1.84-3.61,3.26-5.52,4.25-1.92,1-3.7,1.68-5.35,2.04-1.65.37-2.81.63-3.5.79-12.1,2.75-24.15,5.76-36.15,9.02v-25.06c6.95.78,13.92,1.64,20.9,2.59,4.08-1,8.17-1.98,12.27-2.92v-16.47c-5.39,1.25-10.78,2.54-16.16,3.89-.61.15-1.18.28-1.72.37-.53.1-1.11.22-1.71.38-.46.12-1.14.23-2.06.35-.91.12-1.92.11-3.03-.03-1.1-.14-2.23-.42-3.37-.85-1.14-.43-2.21-1.17-3.19-2.22-1.37-1.49-2.18-3.16-2.45-5.02-.27-1.86-.48-3.89-.63-6.09v-13.57c.15-2.36.4-4.56.74-6.58.34-2.03,1.27-4.13,2.79-6.32,1.98-2.85,4.26-4.87,6.85-6.05,2.59-1.18,5.22-2.1,7.89-2.77,11.86-2.97,23.76-5.7,35.71-8.17v24.01Z"/>
      <path class="cls-4" d="M247.84,190.53c-6.32.83-12.63,1.73-18.93,2.69,0-3.13,0-6.26,0-9.4-4.06.62-8.12,1.27-12.17,1.95,0,15.93,0,31.86,0,47.79,4.05-.68,8.11-1.33,12.17-1.95,0-4.37,0-8.74,0-13.11,6.61-1.01,13.24-1.95,19.86-2.82v30.16c-11.24,1.46-22.46,3.14-33.66,5.04-.85.14-1.68.29-2.49.43-.81.14-1.64.25-2.49.32-3.78.43-6.65.23-8.61-.65-1.96-.87-3.45-1.94-4.45-3.22-.62-.81-1.08-1.63-1.39-2.46-.31-.83-.58-1.76-.81-2.8-.15-.82-.25-1.67-.29-2.55-.04-.88-.06-2.21-.06-3.99,0-14.5,0-29,0-43.5,0-2.71.17-5.31.52-7.82.35-2.5,1.48-5.02,3.41-7.55,1.08-1.44,2.29-2.64,3.64-3.58,1.35-.95,2.77-1.71,4.28-2.29,1.5-.58,3.03-1.04,4.57-1.39,1.54-.35,3.09-.65,4.63-.91,10.73-1.81,21.49-3.43,32.26-4.84v26.45Z"/>
      <path class="cls-4" d="M280.1,160.45c0,10.59,0,21.19,0,31.78,3.85-.36,7.7-.7,11.55-1.01v-31.78c9.3-.75,18.61-1.35,27.93-1.81-1.79,5.77-3.59,11.55-5.38,17.33v47.79c1.79,5.59,3.59,11.18,5.38,16.77-9.32.45-18.63,1.06-27.93,1.81v-32.94c-3.85.31-7.7.65-11.55,1.01,0,10.98,0,21.96,0,32.94-9.25.87-18.5,1.89-27.73,3.05,1.78-5.91,3.57-11.81,5.35-17.71v-47.79c-1.79-5.47-3.57-10.93-5.35-16.39,9.23-1.16,18.48-2.18,27.73-3.05Z"/>
      <path class="cls-4" d="M356.09,156.61c-1.76,5.7-3.51,11.4-5.27,17.11v47.79c3.36-.04,6.71-.07,10.07-.08v-14.5c7.02-.01,14.05.06,21.07.21,0,10.52,0,21.03,0,31.55-19.66-.43-39.33-.21-58.98.68,1.79-5.76,3.59-11.52,5.38-17.28v-47.79c-1.79-5.61-3.59-11.22-5.38-16.83,11.03-.5,22.07-.78,33.11-.87Z"/>
      <path class="cls-4" d="M437.95,159.81c3.85,21.95,7.7,43.92,11.55,65.91,1.87,5.87,3.73,11.74,5.6,17.62-8.43-.89-16.87-1.66-25.32-2.3-.97-6.73-1.95-13.45-2.92-20.17-4.63-.34-9.27-.64-13.91-.91-.94,6.6-1.87,13.2-2.81,19.8-8.5-.46-17-.79-25.5-1.01,2.03-5.63,4.06-11.26,6.08-16.88,3.78-21.49,7.57-42.96,11.35-64.41,11.97.54,23.93,1.32,35.87,2.34ZM414.7,205.92c3.47.21,6.93.43,10.4.68-1.71-11.57-3.43-23.13-5.14-34.69-1.75,11.33-3.51,22.67-5.26,34.01Z"/>
      <path class="cls-4" d="M525.56,188.82v47.79c1.77,6.02,3.54,12.04,5.31,18.07-8.66-1.68-17.33-3.23-26.02-4.65-7.73-17.12-15.46-34.13-23.21-51.04.27,15.89.54,31.78.81,47.67-8.45-1.16-16.9-2.19-25.37-3.11,1.79-5.49,3.57-10.98,5.36-16.46v-47.79c-1.79-5.89-3.57-11.77-5.36-17.65,8.78.95,17.55,2.02,26.3,3.23,7.75,17.04,15.48,34.18,23.21,51.43-.23-16.01-.46-32.02-.7-48.02,8.34,1.37,16.67,2.87,24.98,4.48-1.77,5.34-3.54,10.69-5.31,16.04Z"/>
      <path class="cls-4" d="M575.36,182.63c2.44.61,4.99,1.39,7.66,2.35,2.66.96,5.06,2.62,7.19,4.96,1.21,1.41,2.18,2.93,2.91,4.55.72,1.63,1.23,3.27,1.54,4.94.3,1.67.49,3.32.57,4.97.07,1.64.11,3.24.11,4.79v38.28c0,2.78-.17,5.68-.51,8.68-.34,3-1.35,5.43-3.02,7.3-.99,1.05-2.11,1.75-3.37,2.12-1.25.36-2.57.54-3.94.53-1.37,0-2.8-.16-4.28-.46-1.49-.3-2.95-.63-4.4-.99-13.81-3.44-27.68-6.54-41.6-9.3,1.73-5.34,3.46-10.68,5.19-16.01v-47.79c-1.73-6.04-3.46-12.07-5.19-18.1,13.77,2.73,27.48,5.79,41.14,9.19ZM561.49,196.36v47.79c3.98.92,7.95,1.87,11.92,2.85v-47.79c-3.97-.98-7.94-1.93-11.92-2.85Z"/>
    </g>
    <g>
      <path class="cls-5" d="M183.8,198.91c-6.57-.96-13.12-1.85-19.66-2.66-4.09.95-8.18,1.92-12.27,2.92v14.96c4.92-1.21,9.85-2.38,14.79-3.5.61-.14,1.26-.29,1.95-.44.69-.16,1.38-.27,2.07-.35.46-.1,1.22-.21,2.3-.33,1.07-.12,2.26-.11,3.57.03,1.3.14,2.65.5,4.03,1.05,1.38.56,2.53,1.56,3.46,2.99,1.07,1.48,1.71,3.13,1.9,4.95.19,1.82.29,3.69.29,5.63v13.22c0,1.39-.04,2.81-.12,4.26-.08,1.45-.31,2.9-.69,4.38-.85,3.04-2.15,5.47-3.92,7.31-1.77,1.84-3.61,3.26-5.52,4.25-1.92,1-3.7,1.68-5.35,2.04-1.65.37-2.81.63-3.5.79-12.1,2.75-24.15,5.76-36.15,9.02v-25.06c6.95.78,13.92,1.64,20.9,2.59,4.08-1,8.17-1.98,12.27-2.92v-16.47c-5.39,1.25-10.78,2.54-16.16,3.89-.61.15-1.18.28-1.72.37-.53.1-1.11.22-1.71.38-.46.12-1.14.23-2.06.35-.91.12-1.92.11-3.03-.03-1.1-.14-2.23-.42-3.37-.85-1.14-.43-2.21-1.17-3.19-2.22-1.37-1.49-2.18-3.16-2.45-5.02-.27-1.86-.48-3.89-.63-6.09v-13.57c.15-2.36.4-4.56.74-6.58.34-2.03,1.27-4.13,2.79-6.32,1.98-2.85,4.26-4.87,6.85-6.05,2.59-1.18,5.22-2.1,7.89-2.77,11.86-2.97,23.76-5.7,35.71-8.17v24.01Z"/>
      <path class="cls-5" d="M247.84,190.53c-6.32.83-12.63,1.73-18.93,2.69,0-3.13,0-6.26,0-9.4-4.06.62-8.12,1.27-12.17,1.95,0,15.93,0,31.86,0,47.79,4.05-.68,8.11-1.33,12.17-1.95,0-4.37,0-8.74,0-13.11,6.61-1.01,13.24-1.95,19.86-2.82v30.16c-11.24,1.46-22.46,3.14-33.66,5.04-.85.14-1.68.29-2.49.43-.81.14-1.64.25-2.49.32-3.78.43-6.65.23-8.61-.65-1.96-.87-3.45-1.94-4.45-3.22-.62-.81-1.08-1.63-1.39-2.46-.31-.83-.58-1.76-.81-2.8-.15-.82-.25-1.67-.29-2.55-.04-.88-.06-2.21-.06-3.99,0-14.5,0-29,0-43.5,0-2.71.17-5.31.52-7.82.35-2.5,1.48-5.02,3.41-7.55,1.08-1.44,2.29-2.64,3.64-3.58,1.35-.95,2.77-1.71,4.28-2.29,1.5-.58,3.03-1.04,4.57-1.39,1.54-.35,3.09-.65,4.63-.91,10.73-1.81,21.49-3.43,32.26-4.84v26.45Z"/>
      <path class="cls-5" d="M280.1,160.45c0,10.59,0,21.19,0,31.78,3.85-.36,7.7-.7,11.55-1.01v-31.78c9.3-.75,18.61-1.35,27.93-1.81-1.79,5.77-3.59,11.55-5.38,17.33v47.79c1.79,5.59,3.59,11.18,5.38,16.77-9.32.45-18.63,1.06-27.93,1.81v-32.94c-3.85.31-7.7.65-11.55,1.01,0,10.98,0,21.96,0,32.94-9.25.87-18.5,1.89-27.73,3.05,1.78-5.91,3.57-11.81,5.35-17.71v-47.79c-1.79-5.47-3.57-10.93-5.35-16.39,9.23-1.16,18.48-2.18,27.73-3.05Z"/>
      <path class="cls-5" d="M356.09,156.61c-1.76,5.7-3.51,11.4-5.27,17.11v47.79c3.36-.04,6.71-.07,10.07-.08v-14.5c7.02-.01,14.05.06,21.07.21,0,10.52,0,21.03,0,31.55-19.66-.43-39.33-.21-58.98.68,1.79-5.76,3.59-11.52,5.38-17.28v-47.79c-1.79-5.61-3.59-11.22-5.38-16.83,11.03-.5,22.07-.78,33.11-.87Z"/>
      <path class="cls-5" d="M437.95,159.81c3.85,21.95,7.7,43.92,11.55,65.91,1.87,5.87,3.73,11.74,5.6,17.62-8.43-.89-16.87-1.66-25.32-2.3-.97-6.73-1.95-13.45-2.92-20.17-4.63-.34-9.27-.64-13.91-.91-.94,6.6-1.87,13.2-2.81,19.8-8.5-.46-17-.79-25.5-1.01,2.03-5.63,4.06-11.26,6.08-16.88,3.78-21.49,7.57-42.96,11.35-64.41,11.97.54,23.93,1.32,35.87,2.34ZM414.7,205.92c3.47.21,6.93.43,10.4.68-1.71-11.57-3.43-23.13-5.14-34.69-1.75,11.33-3.51,22.67-5.26,34.01Z"/>
      <path class="cls-5" d="M525.56,188.82v47.79c1.77,6.02,3.54,12.04,5.31,18.07-8.66-1.68-17.33-3.23-26.02-4.65-7.73-17.12-15.46-34.13-23.21-51.04.27,15.89.54,31.78.81,47.67-8.45-1.16-16.9-2.19-25.37-3.11,1.79-5.49,3.57-10.98,5.36-16.46v-47.79c-1.79-5.89-3.57-11.77-5.36-17.65,8.78.95,17.55,2.02,26.3,3.23,7.75,17.04,15.48,34.18,23.21,51.43-.23-16.01-.46-32.02-.7-48.02,8.34,1.37,16.67,2.87,24.98,4.48-1.77,5.34-3.54,10.69-5.31,16.04Z"/>
      <path class="cls-5" d="M575.36,182.63c2.44.61,4.99,1.39,7.66,2.35,2.66.96,5.06,2.62,7.19,4.96,1.21,1.41,2.18,2.93,2.91,4.55.72,1.63,1.23,3.27,1.54,4.94.3,1.67.49,3.32.57,4.97.07,1.64.11,3.24.11,4.79v38.28c0,2.78-.17,5.68-.51,8.68-.34,3-1.35,5.43-3.02,7.3-.99,1.05-2.11,1.75-3.37,2.12-1.25.36-2.57.54-3.94.53-1.37,0-2.8-.16-4.28-.46-1.49-.3-2.95-.63-4.4-.99-13.81-3.44-27.68-6.54-41.6-9.3,1.73-5.34,3.46-10.68,5.19-16.01v-47.79c-1.73-6.04-3.46-12.07-5.19-18.1,13.77,2.73,27.48,5.79,41.14,9.19ZM561.49,196.36v47.79c3.98.92,7.95,1.87,11.92,2.85v-47.79c-3.97-.98-7.94-1.93-11.92-2.85Z"/>
    </g>
  </g>
</svg>